<?xml version="1.0" encoding="utf-8"?>
<!-- Generator: Adobe Illustrator 16.0.0, SVG Export Plug-In . SVG Version: 6.00 Build 0)  -->
<!DOCTYPE svg PUBLIC "-//W3C//DTD SVG 1.1//EN" "http://www.w3.org/Graphics/SVG/1.1/DTD/svg11.dtd">
<svg version="1.1" id="Capa_1" xmlns="http://www.w3.org/2000/svg" xmlns:xlink="http://www.w3.org/1999/xlink" x="0px" y="0px"
	 width="1600.96px" height="231.557px" viewBox="0 0 1600.96 231.557" enable-background="new 0 0 1600.96 231.557"
	 xml:space="preserve">
<path fill="#4F6FBE" d="M0,139.63l26.683-9.338c26.683-8.988,80.048-28.188,133.413-27.924
	c53.365-0.264,106.73,18.936,160.096,27.924c53.365,9.338,106.731,9.338,160.096-9.25c53.365-18.938,106.73-55.589,160.095-51.228
	c53.367,4.364,106.731,51.49,160.097,83.777c53.366,32.293,106.731,51.49,160.098,65.189
	c53.365,14.229,106.729,22.953,160.094-9.334c53.365-32.293,106.73-107.343,160.096-121.044
	c53.363-14.225,106.73,32.9,160.096,37.265c53.365,4.361,106.73-32.291,133.414-51.228l26.684-18.588V0h-26.684
	c-26.684,0-80.047,0-133.414,0c-53.365,0-106.73,0-160.096,0s-106.73,0-160.096,0c-53.363,0-106.729,0-160.094,0
	C907.21,0,853.845,0,800.48,0c-53.366,0-106.73,0-160.098,0c-53.365,0-106.73,0-160.095,0c-53.365,0-106.731,0-160.096,0
	c-53.365,0-106.73,0-160.096,0C106.731,0,53.366,0,26.683,0H0V139.63L0,139.63z"/>
</svg>
